<svg width="65" height="64" viewBox="0 0 65 64" fill="none" xmlns="http://www.w3.org/2000/svg">
<path d="M55.2333 10.6665H9.76669C8.33075 10.6665 7.16669 11.8306 7.16669 13.2665V18.7332C7.16669 20.1691 8.33075 21.3332 9.76669 21.3332H55.2333C56.6693 21.3332 57.8334 20.1691 57.8334 18.7332V13.2665C57.8334 11.8306 56.6693 10.6665 55.2333 10.6665Z" stroke="white" stroke-width="1.5" stroke-linecap="round" stroke-linejoin="round"/>
<path d="M36.5 33.3335L28.5 41.3335" stroke="white" stroke-width="1.5" stroke-linecap="round" stroke-linejoin="round"/>
<path d="M28.5 33.3335L36.5 41.3335" stroke="white" stroke-width="1.5" stroke-linecap="round" stroke-linejoin="round"/>
<path d="M46.26 53.3335H18.74C17.4022 53.3334 16.1133 52.8306 15.1288 51.9247C14.1444 51.0188 13.5364 49.776 13.4254 48.4428L11.1667 21.3335H53.8334L51.5747 48.4428C51.4636 49.776 50.8556 51.0188 49.8712 51.9247C48.8868 52.8306 47.5978 53.3334 46.26 53.3335V53.3335Z" stroke="white" stroke-width="1.5" stroke-linecap="round" stroke-linejoin="round"/>
</svg>
