<svg width="24" height="24" viewBox="0 0 24 24" fill="none" xmlns="http://www.w3.org/2000/svg">
<path d="M3.11798 12.467C3.0407 12.3233 3.00024 12.1627 3.00024 11.9995C3.00024 11.8363 3.0407 11.6757 3.11798 11.532C5.00998 8.033 8.50498 5 12 5C15.495 5 18.99 8.033 20.882 11.533C20.9593 11.6767 20.9997 11.8373 20.9997 12.0005C20.9997 12.1637 20.9593 12.3243 20.882 12.468C18.99 15.967 15.495 19 12 19C8.50498 19 5.00998 15.967 3.11798 12.467V12.467Z" stroke="currentColor" stroke-width="1.5" stroke-linecap="round" stroke-linejoin="round"/>
<path d="M14.1211 9.879C14.4124 10.1545 14.6456 10.4857 14.8067 10.8529C14.9678 11.2201 15.0537 11.6158 15.0593 12.0168C15.0649 12.4177 14.99 12.8157 14.8392 13.1872C14.6883 13.5588 14.4645 13.8963 14.1809 14.1798C13.8974 14.4633 13.5599 14.6872 13.1884 14.838C12.8168 14.9889 12.4188 15.0638 12.0179 15.0582C11.6169 15.0526 11.2212 14.9667 10.854 14.8056C10.4868 14.6444 10.1557 14.4113 9.88012 14.12C9.3502 13.5513 9.06171 12.7991 9.07542 12.0219C9.08913 11.2447 9.40398 10.5032 9.95363 9.95351C10.5033 9.40386 11.2448 9.08901 12.022 9.0753C12.7992 9.06158 13.5514 9.35008 14.1201 9.88" stroke="currentColor" stroke-width="1.429" stroke-linecap="round" stroke-linejoin="round"/>
</svg>
