<svg width="22" height="22" viewBox="0 0 22 22" fill="none" xmlns="http://www.w3.org/2000/svg">
<path d="M14.536 7.464C15.4738 8.40181 16.0006 9.67374 16.0006 11C16.0006 12.3263 15.4738 13.5982 14.536 14.536C13.5981 15.4738 12.3262 16.0007 11 16.0007C9.67369 16.0007 8.40176 15.4738 7.46395 14.536C6.52615 13.5983 5.99924 12.3265 5.99915 11.0004C5.9991 10.3437 6.12839 9.69348 6.37964 9.08679C6.63088 8.48011 6.99916 7.92886 7.46345 7.4645C7.92774 7.00015 8.47894 6.63179 9.08559 6.38046C9.69224 6.12912 10.3424 5.99974 10.9991 5.99969C12.3253 5.9996 13.5971 6.52633 14.535 7.464" stroke="#FEBF32" stroke-width="1.5" stroke-linecap="round" stroke-linejoin="round"/>
<path d="M11 3V1" stroke="#FEBF32" stroke-width="1.5" stroke-linecap="round" stroke-linejoin="round"/>
<path d="M11 21V19" stroke="#FEBF32" stroke-width="1.5" stroke-linecap="round" stroke-linejoin="round"/>
<path d="M17.36 4.64L18.07 3.93" stroke="#FEBF32" stroke-width="1.5" stroke-linecap="round" stroke-linejoin="round"/>
<path d="M3.93005 18.07L4.64005 17.36" stroke="#FEBF32" stroke-width="1.5" stroke-linecap="round" stroke-linejoin="round"/>
<path d="M19 11H21" stroke="#FEBF32" stroke-width="1.5" stroke-linecap="round" stroke-linejoin="round"/>
<path d="M1 11H3" stroke="#FEBF32" stroke-width="1.5" stroke-linecap="round" stroke-linejoin="round"/>
<path d="M17.36 17.36L18.07 18.07" stroke="#FEBF32" stroke-width="1.5" stroke-linecap="round" stroke-linejoin="round"/>
<path d="M3.93005 3.93L4.64005 4.64" stroke="#FEBF32" stroke-width="1.5" stroke-linecap="round" stroke-linejoin="round"/>
</svg>
