<svg width="90" height="32" viewBox="0 0 90 32" fill="none" xmlns="http://www.w3.org/2000/svg">
<path d="M2.58854 2.64968V28.2497C6.70573 28.2497 9.91253 27.0947 12.2089 24.7847C14.7771 22.2166 16.0611 19.1049 16.0611 15.4497C16.0611 11.8081 14.7771 8.69639 12.2089 6.11465C9.91253 3.80467 6.70573 2.64968 2.58854 2.64968ZM2.58854 0.0407643H2.26242C7.33079 0.0407643 11.2645 1.44713 14.0637 4.25987C17.1482 7.35796 18.6904 11.0879 18.6904 15.4497C18.6904 19.8251 17.1482 23.555 14.0637 26.6395C11.2645 29.4522 7.33079 30.8586 2.26242 30.8586H2.58854V30.8994H0V0H2.58854V0.0407643Z" fill="url(#paint0_linear_3693_7421)"/>
<path d="M28.3108 26.986C29.5881 28.141 31.2594 28.7185 33.3248 28.7185C35.5533 28.7185 37.4556 27.9372 39.0318 26.3745C39.2357 26.1707 39.4938 25.8786 39.8064 25.4981L42.4357 26.4357C41.865 27.2374 41.369 27.8488 40.9478 28.2701C38.8416 30.3762 36.3006 31.4293 33.3248 31.4293C30.3626 31.4293 27.8285 30.383 25.7223 28.2904C23.6297 26.1843 22.5834 23.6433 22.5834 20.6675C22.5834 17.7053 23.6297 15.1779 25.7223 13.0854C27.8285 10.9792 30.3626 9.92611 33.3248 9.92611C35.8658 9.92611 38.0943 10.687 40.0102 12.2089C40.3227 12.4671 40.6352 12.7524 40.9478 13.065C41.0565 13.1873 41.2603 13.4115 41.5592 13.7376L39.9898 15.307L28.3108 26.986ZM37.7478 13.9006C36.6335 13.0446 35.1592 12.6166 33.3248 12.6166C31.11 12.6166 29.2144 13.4047 27.6382 14.9809C26.062 16.5435 25.2739 18.4391 25.2739 20.6675C25.2739 22.5019 25.7019 23.9762 26.558 25.0904L37.7478 13.9006Z" fill="url(#paint1_linear_3693_7421)"/>
<path d="M55.0318 26.3134L61.8395 11.5975H64.7949L55.0318 32L45.2892 11.5975H48.2446L55.0318 26.3134Z" fill="url(#paint2_linear_3693_7421)"/>
<path d="M89.6204 30.8994H87.0318V28.0662C84.7355 30.3083 82.0994 31.4293 79.1236 31.4293C76.1614 31.4293 73.6272 30.383 71.521 28.2904C69.4285 26.1843 68.3822 23.6501 68.3822 20.6879C68.3822 17.7121 69.4285 15.1779 71.521 13.0854C73.6272 10.9792 76.1614 9.92611 79.1236 9.92611C82.0994 9.92611 84.7355 11.0471 87.0318 13.2892V11.5975H89.6204V30.8994ZM87.0318 22.2981V19.0573C86.7465 17.5219 86.0127 16.1631 84.8306 14.9809C83.2544 13.4047 81.352 12.6166 79.1236 12.6166C76.8951 12.6166 74.9928 13.4047 73.4166 14.9809C71.8403 16.5571 71.0522 18.4594 71.0522 20.6879C71.0522 22.9163 71.8403 24.8119 73.4166 26.3745C74.9928 27.9372 76.8951 28.7185 79.1236 28.7185C81.352 28.7185 83.2544 27.9372 84.8306 26.3745C86.0127 25.1788 86.7465 23.82 87.0318 22.2981Z" fill="url(#paint3_linear_3693_7421)"/>
<defs>
<linearGradient id="paint0_linear_3693_7421" x1="0" y1="0" x2="91.2426" y2="5.6085" gradientUnits="userSpaceOnUse">
<stop stop-color="#A9CDFF"/>
<stop offset="0.21875" stop-color="#72F6D1"/>
<stop offset="0.557292" stop-color="#A0ED8D"/>
<stop offset="0.817708" stop-color="#FED365"/>
<stop offset="1" stop-color="#FAA49E"/>
</linearGradient>
<linearGradient id="paint1_linear_3693_7421" x1="0" y1="0" x2="91.2426" y2="5.6085" gradientUnits="userSpaceOnUse">
<stop stop-color="#A9CDFF"/>
<stop offset="0.21875" stop-color="#72F6D1"/>
<stop offset="0.557292" stop-color="#A0ED8D"/>
<stop offset="0.817708" stop-color="#FED365"/>
<stop offset="1" stop-color="#FAA49E"/>
</linearGradient>
<linearGradient id="paint2_linear_3693_7421" x1="0" y1="0" x2="91.2426" y2="5.6085" gradientUnits="userSpaceOnUse">
<stop stop-color="#A9CDFF"/>
<stop offset="0.21875" stop-color="#72F6D1"/>
<stop offset="0.557292" stop-color="#A0ED8D"/>
<stop offset="0.817708" stop-color="#FED365"/>
<stop offset="1" stop-color="#FAA49E"/>
</linearGradient>
<linearGradient id="paint3_linear_3693_7421" x1="0" y1="0" x2="91.2426" y2="5.6085" gradientUnits="userSpaceOnUse">
<stop stop-color="#A9CDFF"/>
<stop offset="0.21875" stop-color="#72F6D1"/>
<stop offset="0.557292" stop-color="#A0ED8D"/>
<stop offset="0.817708" stop-color="#FED365"/>
<stop offset="1" stop-color="#FAA49E"/>
</linearGradient>
</defs>
</svg>
