<svg width="40" height="24" viewBox="0 0 40 24" fill="none" xmlns="http://www.w3.org/2000/svg">
<path fill-rule="evenodd" clip-rule="evenodd" d="M33.5232 3.4674C34.8891 4.33425 35.9024 5.53451 36.5633 7.06816H39.273C38.4359 4.84547 37.092 3.11177 35.2415 1.86706C33.391 0.622354 31.2321 0 28.7647 0C26.6278 0 24.6892 0.511219 22.9488 1.53366C21.2084 2.53387 19.8316 3.94528 18.8182 5.76789C18.5955 6.17229 18.3978 6.58903 18.2252 7.01811C18.0488 6.56007 17.8447 6.1211 17.6129 5.7012C16.6436 3.94527 15.2447 2.60054 13.4162 1.66701C11.5878 0.733479 9.39577 0.266712 6.8403 0.266712H0V14.1414H2.31314V2.20046H6.8403C10.0567 2.20046 12.502 3.06731 14.1763 4.80101C15.8726 6.51248 16.7207 8.90188 16.7207 11.9692C16.7207 15.0143 15.8726 17.3926 14.1763 19.104C12.502 20.7933 10.0567 21.6379 6.8403 21.6379H2.42424V23.5716H6.8403C9.39577 23.5716 11.5878 23.116 13.4162 22.2047C15.2447 21.2712 16.6436 19.9375 17.6129 18.2038C17.8518 17.7711 18.0612 17.3189 18.2412 16.847C18.4101 17.2659 18.6024 17.6737 18.8182 18.0705C19.8316 19.8709 21.2084 21.2823 22.9488 22.3047C24.6892 23.3049 26.6278 23.805 28.7647 23.805C30.8355 23.805 32.6971 23.3272 34.3493 22.3714C36.0236 21.4156 37.3564 20.1154 38.3478 18.4706C39.3391 16.8036 39.8899 14.9476 40 12.9027V11.2024H27.8395V13.1028H37.5547C37.4445 14.8365 36.9929 16.359 36.1998 17.6704C35.4288 18.9596 34.3934 19.9598 33.0936 20.671C31.8159 21.3601 30.3729 21.7046 28.7647 21.7046C27.0464 21.7046 25.5043 21.3045 24.1384 20.5043C22.7726 19.7042 21.6931 18.5595 20.9 17.0703C20.1069 15.5811 19.7104 13.8585 19.7104 11.9025C19.7104 9.94655 20.1069 8.23508 20.9 6.7681C21.6931 5.2789 22.7726 4.13421 24.1384 3.33404C25.5043 2.53387 27.0464 2.13379 28.7647 2.13379C30.5932 2.13379 32.1794 2.57832 33.5232 3.4674Z" fill="url(#paint0_linear_3792_7423)"/>
<defs>
<linearGradient id="paint0_linear_3792_7423" x1="0" y1="0" x2="40.8224" y2="1.5055" gradientUnits="userSpaceOnUse">
<stop stop-color="#A9CDFF"/>
<stop offset="0.21875" stop-color="#72F6D1"/>
<stop offset="0.557292" stop-color="#A0ED8D"/>
<stop offset="0.817708" stop-color="#FED365"/>
<stop offset="1" stop-color="#FAA49E"/>
</linearGradient>
</defs>
</svg>
